<?xml version="1.0" encoding="utf-8"?>
<!-- Generator: Adobe Illustrator 18.0.0, SVG Export Plug-In . SVG Version: 6.00 Build 0)  -->
<!DOCTYPE svg PUBLIC "-//W3C//DTD SVG 1.1//EN" "http://www.w3.org/Graphics/SVG/1.1/DTD/svg11.dtd">
<svg version="1.1" id="Layer_1" xmlns="http://www.w3.org/2000/svg" xmlns:xlink="http://www.w3.org/1999/xlink" x="0px" y="0px"
	 viewBox="0 0 512 512" enable-background="new 0 0 512 512" xml:space="preserve">
<g>
	<circle fill="#FD8469" cx="256" cy="256" r="252.5"/>
	<path fill="#4CDBC4" d="M353.9,132.7H158.1c-5.1,0-9.2,4.1-9.2,9.2v248c0,5.1,4.1,9.2,9.2,9.2h195.8c5.1,0,9.2-4.1,9.2-9.2v-248
		C363.1,136.8,359,132.7,353.9,132.7z"/>
	<rect x="172.6" y="182.1" fill="#FFFFFF" width="166.9" height="193.3"/>
	<rect x="224.5" y="152.4" fill="#FD8469" width="63" height="9.9"/>
	<rect x="235.3" y="77.5" fill="#FFFFFF" width="41.4" height="79.8"/>
	<circle fill="#324A5E" cx="256" cy="101.2" r="9.7"/>
	<g>
		<circle fill="#324A5E" cx="256" cy="219.5" r="20.2"/>
		<path fill="#324A5E" d="M297.4,288.9c-0.8-22.1-19-39.8-41.4-39.8c-22.4,0-40.5,17.7-41.4,39.8H297.4z"/>
	</g>
	<g>
		<rect x="191.3" y="311" fill="#E6E9EE" width="129.5" height="11.3"/>
		<rect x="191.3" y="340.7" fill="#E6E9EE" width="67.1" height="11.3"/>
	</g>
</g>
</svg>
