<?xml version="1.0" encoding="utf-8"?>
<!-- Generator: Adobe Illustrator 18.0.0, SVG Export Plug-In . SVG Version: 6.00 Build 0)  -->
<!DOCTYPE svg PUBLIC "-//W3C//DTD SVG 1.1//EN" "http://www.w3.org/Graphics/SVG/1.1/DTD/svg11.dtd">
<svg version="1.1" id="Layer_1" xmlns="http://www.w3.org/2000/svg" xmlns:xlink="http://www.w3.org/1999/xlink" x="0px" y="0px"
	 viewBox="0 0 512 512" enable-background="new 0 0 512 512" xml:space="preserve">
<g>
	<path fill="#FFD05B" d="M508.5,256c0,70.2-28.6,133.7-74.9,179.4C388,480.6,325.2,508.5,256,508.5c-69.2,0-132-27.9-177.6-73
		C32.1,389.7,3.5,326.2,3.5,256C3.5,116.6,116.5,3.5,256,3.5C395.4,3.5,508.5,116.6,508.5,256z"/>
	<g>
		<path fill="#F9B54C" d="M82.1,439c45.3,43.1,106.5,69.5,173.9,69.5c67.4,0,128.6-26.5,173.9-69.5H82.1z"/>
		<g>
			<g>
				<rect x="207.4" y="379.5" fill="#EDF2F2" width="97.1" height="40.5"/>
				<rect x="207.4" y="379.5" opacity="0.45" fill="#395767" width="97.1" height="12.3"/>
				<path fill="#FFFFFF" d="M326.4,420H185.6c-0.3,0-0.6,0.3-0.6,0.6v17.9c0,0.3,0.2,0.6,0.6,0.6h140.9c0.3,0,0.6-0.3,0.6-0.6v-17.9
					C327,420.2,326.7,420,326.4,420z"/>
			</g>
			<path fill="#FFFFFF" d="M411.7,130.4H100.3c-2,0-3.7,1.7-3.7,3.7v241.7c0,2,1.7,3.7,3.7,3.7h311.3c2,0,3.7-1.7,3.7-3.7V134.1
				C415.3,132.1,413.7,130.4,411.7,130.4z"/>
			<rect x="114.4" y="148.2" fill="#2DB39A" width="283.3" height="187.7"/>
			<g>
				<rect x="238.1" y="238.3" fill="#395767" width="35.7" height="7.8"/>
				<g>
					<path fill="#324A5E" d="M279.9,182.3c0,0,43.6,22.1,36.6,79.5c0,0-12.1-23.5-36.6-23.5"/>
					<path fill="#324A5E" d="M232.1,182.3c0,0-43.6,22.1-36.6,79.5c0,0,12.1-23.5,36.6-23.5"/>
				</g>
				<path fill="#FF7058" d="M256,72.9c-6.7,0-23.6,40.5-23.9,83.9v81.6h47.9v-81.6C279.6,113.3,262,72.9,256,72.9z"/>
				<ellipse fill="#FFFFFF" cx="256" cy="129.1" rx="10.7" ry="21.4"/>
				<polygon fill="#FFFFFF" points="240.1,253.7 232.7,281.5 249.7,264 256.3,285.9 262.2,264 279.3,281.8 273,253.7 				"/>
			</g>
		</g>
	</g>
</g>
</svg>
